<svg xmlns="http://www.w3.org/2000/svg" width="18.615" height="22" viewBox="0 0 18.615 22">
  <path id="Icon_ionic-md-notifications-outline" data-name="Icon ionic-md-notifications-outline" d="M14.986,7.208a7.645,7.645,0,0,1,1.265.237,5.389,5.389,0,0,1,4.108,5.281v6.749l.493.5.412.414H8.6l.412-.414.493-.5V12.725a5.39,5.39,0,0,1,4.108-5.281,9.362,9.362,0,0,1,1.265-.237m.053-3.833a1.617,1.617,0,0,0-1.643,1.65v.77a7.13,7.13,0,0,0-5.475,6.93v6.05l-2.19,2.2v1.1H24.24v-1.1l-2.19-2.2v-6.05a7.13,7.13,0,0,0-5.475-6.93v-.77a1.617,1.617,0,0,0-1.643-1.65Zm2.19,19.8h-4.38a2.19,2.19,0,1,0,4.38,0Z" transform="translate(-5.625 -3.375)" fill="#27272d"/>
</svg>
