<svg xmlns="http://www.w3.org/2000/svg" width="15.167" height="15.182" viewBox="0 0 15.167 15.182">
  <g id="Box_icon" data-name="Box icon" transform="translate(-2174.149 -1058.168)">
    <g id="Path_325" data-name="Path 325" transform="translate(-0.062)" fill="none">
      <path d="M2174.211,1058.168v8.253h7v-8.253Z" stroke="none"/>
      <path d="M 2175.611328125 1059.568359375 L 2175.611328125 1065.02099609375 L 2179.815185546875 1065.02099609375 L 2179.815185546875 1059.568359375 L 2175.611328125 1059.568359375 M 2174.21142578125 1058.168334960938 L 2181.215087890625 1058.168334960938 L 2181.215087890625 1066.421020507812 L 2174.21142578125 1066.421020507812 L 2174.21142578125 1058.168334960938 Z" stroke="none" fill="#27272d"/>
    </g>
    <g id="Path_326" data-name="Path 326" transform="translate(-0.062 9.41)" fill="none">
      <path d="M2174.211,1058.168v5.773h7v-5.773Z" stroke="none"/>
      <path d="M 2175.611328125 1059.568359375 L 2175.611328125 1062.541137695312 L 2179.815185546875 1062.541137695312 L 2179.815185546875 1059.568359375 L 2175.611328125 1059.568359375 M 2174.21142578125 1058.168334960938 L 2181.215087890625 1058.168334960938 L 2181.215087890625 1063.941162109375 L 2174.21142578125 1063.941162109375 L 2174.21142578125 1058.168334960938 Z" stroke="none" fill="#27272d"/>
    </g>
    <g id="Path_327" data-name="Path 327" transform="translate(8.113 6.898)" fill="none">
      <path d="M2174.211,1058.168v8.285h6.993v-8.285Z" stroke="none"/>
      <path d="M 2175.611328125 1059.568359375 L 2175.611328125 1065.05322265625 L 2179.80419921875 1065.05322265625 L 2179.80419921875 1059.568359375 L 2175.611328125 1059.568359375 M 2174.21142578125 1058.168334960938 L 2181.2041015625 1058.168334960938 L 2181.2041015625 1066.453247070312 L 2174.21142578125 1066.453247070312 L 2174.21142578125 1058.168334960938 Z" stroke="none" fill="#27272d"/>
    </g>
    <g id="Path_328" data-name="Path 328" transform="translate(8.113)" fill="none">
      <path d="M2174.211,1058.168v5.7h6.993v-5.7Z" stroke="none"/>
      <path d="M 2175.611328125 1059.568359375 L 2175.611328125 1062.47314453125 L 2179.80419921875 1062.47314453125 L 2179.80419921875 1059.568359375 L 2175.611328125 1059.568359375 M 2174.21142578125 1058.168334960938 L 2181.2041015625 1058.168334960938 L 2181.2041015625 1063.873168945312 L 2174.21142578125 1063.873168945312 L 2174.21142578125 1058.168334960938 Z" stroke="none" fill="#27272d"/>
    </g>
  </g>
</svg>
