<svg xmlns="http://www.w3.org/2000/svg" width="20.573" height="14.28" viewBox="0 0 20.573 14.28">
  <g id="Icon" transform="translate(-12.86 -6.059)">
    <g id="Path_351" data-name="Path 351" transform="translate(3403.105 337.951)" fill="none">
      <path d="M-3379.967-318.912h-5.576a2.825,2.825,0,0,1,1.833-2.69c.453-.16,1.185-.176,1.505-.3a2.037,2.037,0,0,0,.7-.32,4.3,4.3,0,0,0,.116-1.141,1.847,1.847,0,0,1-.4-.561,6.317,6.317,0,0,1-.192-1.1s-.264.116-.369-.416c-.092-.457-.26-.7-.211-1.033s.232-.256.232-.256a3.038,3.038,0,0,1-.229-1.5,2.4,2.4,0,0,1,2.59-2.366,2.4,2.4,0,0,1,2.586,2.366,3,3,0,0,1-.232,1.5s.184-.08.232.256-.124.576-.212,1.033c-.1.528-.368.416-.368.416a6.216,6.216,0,0,1-.192,1.1,1.84,1.84,0,0,1-.4.561,4.314,4.314,0,0,0,.116,1.141,2.123,2.123,0,0,0,.7.324c.324.124,1.057.132,1.5.292a2.82,2.82,0,0,1,1.829,2.694Zm5.78-2.014a2.877,2.877,0,0,0-1.281-1.193,2.687,2.687,0,0,0-.988-.208s-.152-.24.348-.332a3.4,3.4,0,0,0,.769-.268c.076-.088.024-.628.024-.628a2.718,2.718,0,0,1-1.337-.372c.62-.941.284-2.038.412-3.062a1.689,1.689,0,0,1,1.87-1.633h.016a1.694,1.694,0,0,1,1.853,1.633c.128,1.021-.228,2.242.408,3.062a2.513,2.513,0,0,1-1.341.332,2.028,2.028,0,0,0,.04.673,1.014,1.014,0,0,0,.48.22,9.222,9.222,0,0,1,1.037.288,1.685,1.685,0,0,1,.9,1.489Zm-14.758,0a1.686,1.686,0,0,1,.9-1.489A9.245,9.245,0,0,1-3387-322.7a1.016,1.016,0,0,0,.48-.22,2.034,2.034,0,0,0,.04-.673,2.513,2.513,0,0,1-1.341-.332c.636-.821.28-2.041.408-3.062a1.694,1.694,0,0,1,1.853-1.633h.016a1.689,1.689,0,0,1,1.869,1.633c.128,1.025-.208,2.122.412,3.062a2.718,2.718,0,0,1-1.337.372s-.052.54.024.628a3.394,3.394,0,0,0,.768.268c.5.092.348.332.348.332a2.69,2.69,0,0,0-.989.208,2.877,2.877,0,0,0-1.281,1.193Zm14.574-7.7h0Zm0,0Zm-11.176,0h0Zm0,0Z" stroke="none"/>
      <path d="M -3374.40283203125 -318.9122924804688 C -3374.39892578125 -320.7173461914062 -3375.78369140625 -321.4458923339844 -3376.23193359375 -321.6062622070312 C -3376.68017578125 -321.76611328125 -3377.4130859375 -321.7743225097656 -3377.73681640625 -321.8983154296875 C -3377.961181640625 -321.9864501953125 -3378.3173828125 -322.0822448730469 -3378.43359375 -322.2226257324219 C -3378.54931640625 -322.3624877929688 -3378.54931640625 -323.3631286621094 -3378.54931640625 -323.3631286621094 C -3378.54931640625 -323.3631286621094 -3378.26904296875 -323.6275024414062 -3378.1533203125 -323.9236450195312 C -3378.037109375 -324.2156982421875 -3377.961181640625 -325.0247192382812 -3377.961181640625 -325.0247192382812 C -3377.961181640625 -325.0247192382812 -3377.697021484375 -324.91162109375 -3377.5927734375 -325.4407348632812 C -3377.504638671875 -325.8972778320312 -3377.336669921875 -326.1370544433594 -3377.380859375 -326.4736938476562 C -3377.428955078125 -326.8100891113281 -3377.612548828125 -326.7298278808594 -3377.61279296875 -326.7298583984375 C -3377.61279296875 -326.7298583984375 -3377.380859375 -327.070068359375 -3377.380859375 -328.2269287109375 C -3377.380859375 -329.4197387695312 -3378.281494140625 -330.5924987792969 -3379.966796875 -330.5924987792969 C -3381.647705078125 -330.5924987792969 -3382.556640625 -329.4156188964844 -3382.556640625 -328.2269287109375 C -3382.556640625 -327.070068359375 -3382.328125 -326.7298583984375 -3382.328125 -326.7298583984375 C -3382.327880859375 -326.7298889160156 -3382.516357421875 -326.8091735839844 -3382.56005859375 -326.4736938476562 C -3382.6083984375 -326.1370544433594 -3382.4404296875 -325.8972778320312 -3382.3486328125 -325.4407348632812 C -3382.244384765625 -324.9090881347656 -3381.98046875 -325.0247497558594 -3381.97998046875 -325.0247192382812 C -3381.97998046875 -325.0247192382812 -3381.90380859375 -324.2197875976562 -3381.7880859375 -323.9236450195312 C -3381.671875 -323.6275024414062 -3381.3916015625 -323.3631286621094 -3381.3916015625 -323.3631286621094 C -3381.3916015625 -323.3631286621094 -3381.3916015625 -322.3624877929688 -3381.5078125 -322.2226257324219 C -3381.62353515625 -322.0822448730469 -3381.97998046875 -321.9864501953125 -3382.2041015625 -321.9024047851562 C -3382.5244140625 -321.7784118652344 -3383.2568359375 -321.7620239257812 -3383.70947265625 -321.6021728515625 C -3384.15771484375 -321.4417724609375 -3385.54248046875 -320.7137451171875 -3385.54248046875 -318.9122924804688 L -3374.40283203125 -318.9122924804688 M -3370.97216796875 -320.9258422851562 C -3370.97216796875 -321.7261352539062 -3371.564453125 -322.3066711425781 -3371.876953125 -322.4147644042969 C -3372.18896484375 -322.5228881835938 -3372.5615234375 -322.6268920898438 -3372.91357421875 -322.7026977539062 C -3373.078125 -322.7349853515625 -3373.31396484375 -322.8272094726562 -3373.39404296875 -322.9230346679688 C -3373.47412109375 -323.0193481445312 -3373.43408203125 -323.5957641601562 -3373.43408203125 -323.5957641601562 C -3373.43408203125 -323.5957641601562 -3373.429931640625 -323.595703125 -3373.421630859375 -323.595703125 C -3373.30859375 -323.595703125 -3372.447998046875 -323.6064147949219 -3372.09326171875 -323.9277648925781 C -3372.7294921875 -324.7485656738281 -3372.37353515625 -325.968994140625 -3372.50146484375 -326.9901123046875 C -3372.629638671875 -328.0148315429688 -3373.23388671875 -328.6229858398438 -3374.354736328125 -328.6229858398438 C -3374.3623046875 -328.6229858398438 -3374.3671875 -328.6229858398438 -3374.37060546875 -328.6229858398438 C -3375.53173828125 -328.6229858398438 -3376.111572265625 -328.0107421875 -3376.240234375 -326.9901123046875 C -3376.36767578125 -325.9653930664062 -3376.03173828125 -324.8684692382812 -3376.652099609375 -323.9277648925781 C -3376.27197265625 -323.5875549316406 -3375.3154296875 -323.5552978515625 -3375.3154296875 -323.5552978515625 C -3375.3154296875 -323.5552978515625 -3375.26318359375 -323.0152587890625 -3375.33935546875 -322.9271240234375 C -3375.41943359375 -322.830810546875 -3376.10791015625 -322.6586303710938 -3376.10791015625 -322.6586303710938 C -3376.60791015625 -322.5669555664062 -3376.455810546875 -322.32666015625 -3376.455810546875 -322.32666015625 C -3376.183837890625 -322.290771484375 -3375.82763671875 -322.3025512695312 -3375.467529296875 -322.1186218261719 C -3374.87890625 -321.818359375 -3374.27490234375 -321.24609375 -3374.1865234375 -320.9258422851562 L -3370.97216796875 -320.9258422851562 M -3374.37060546875 -328.6229858398438 C -3374.370361328125 -328.6229858398438 -3374.3701171875 -328.6229858398438 -3374.3701171875 -328.6229858398438 C -3374.3701171875 -328.6229858398438 -3374.370361328125 -328.6229858398438 -3374.37060546875 -328.6229858398438 M -3385.730712890625 -320.9258422851562 C -3385.642578125 -321.24609375 -3385.0380859375 -321.818359375 -3384.44970703125 -322.1186218261719 C -3384.08935546875 -322.3025512695312 -3383.73291015625 -322.290771484375 -3383.4609375 -322.32666015625 C -3383.4609375 -322.32666015625 -3383.30908203125 -322.5669555664062 -3383.809326171875 -322.6586303710938 C -3383.809326171875 -322.6586303710938 -3384.498046875 -322.830810546875 -3384.57763671875 -322.9271240234375 C -3384.65380859375 -323.0152587890625 -3384.601806640625 -323.5552978515625 -3384.601806640625 -323.5552978515625 C -3384.601806640625 -323.5552978515625 -3383.6455078125 -323.5875549316406 -3383.26513671875 -323.9277648925781 C -3383.88525390625 -324.8684692382812 -3383.549072265625 -325.9653930664062 -3383.67724609375 -326.9901123046875 C -3383.80517578125 -328.0107421875 -3384.3857421875 -328.6229858398438 -3385.546630859375 -328.6229858398438 C -3385.550048828125 -328.6229858398438 -3385.55517578125 -328.6229858398438 -3385.5625 -328.6229858398438 C -3386.68310546875 -328.6229858398438 -3387.28759765625 -328.0148315429688 -3387.415771484375 -326.9901123046875 C -3387.5439453125 -325.968994140625 -3387.18798828125 -324.7485656738281 -3387.82421875 -323.9277648925781 C -3387.44384765625 -323.5834350585938 -3386.48388671875 -323.5958251953125 -3386.4833984375 -323.5957641601562 C -3386.4833984375 -323.5957641601562 -3386.443359375 -323.0193481445312 -3386.523193359375 -322.9230346679688 C -3386.603271484375 -322.8272094726562 -3386.83935546875 -322.7349853515625 -3387.00341796875 -322.7026977539062 C -3387.35595703125 -322.6268920898438 -3387.727783203125 -322.5228881835938 -3388.04052734375 -322.4147644042969 C -3388.3525390625 -322.3066711425781 -3388.944580078125 -321.7261352539062 -3388.944580078125 -320.9258422851562 L -3385.730712890625 -320.9258422851562 M -3385.547119140625 -328.6229858398438 C -3385.547119140625 -328.6229858398438 -3385.546875 -328.6229858398438 -3385.546630859375 -328.6229858398438 C -3385.546875 -328.6229858398438 -3385.547119140625 -328.6229858398438 -3385.547119140625 -328.6229858398438 M -3374.37060546875 -328.6229858398438 C -3374.375 -328.6229858398438 -3374.37646484375 -328.6229858398438 -3374.37646484375 -328.6229858398438 C -3374.37646484375 -328.6229858398438 -3374.3720703125 -328.6229858398438 -3374.37060546875 -328.6229858398438 M -3385.540771484375 -328.6229858398438 C -3385.540771484375 -328.6229858398438 -3385.54248046875 -328.6229858398438 -3385.546630859375 -328.6229858398438 C -3385.54541015625 -328.6229858398438 -3385.540771484375 -328.6229858398438 -3385.540771484375 -328.6229858398438 M -3373.105712890625 -317.6123046875 L -3386.842529296875 -317.6123046875 L -3386.842529296875 -318.9122924804688 C -3386.842529296875 -319.1561584472656 -3386.82373046875 -319.3943176269531 -3386.78662109375 -319.6258544921875 L -3390.24462890625 -319.6258544921875 L -3390.24462890625 -320.9258422851562 C -3390.24462890625 -321.9324035644531 -3389.71484375 -322.8125 -3389.074462890625 -323.3058776855469 L -3389.589599609375 -323.772216796875 L -3388.851806640625 -324.7241821289062 C -3388.709228515625 -324.9080810546875 -3388.72412109375 -325.438232421875 -3388.7373046875 -325.9059753417969 C -3388.748046875 -326.2867736816406 -3388.760009765625 -326.7183532714844 -3388.70556640625 -327.1520080566406 C -3388.491943359375 -328.8609924316406 -3387.287353515625 -329.9230041503906 -3385.5625 -329.9230041503906 L -3385.540771484375 -329.9230041503906 C -3384.802001953125 -329.9220275878906 -3384.165771484375 -329.7385559082031 -3383.659912109375 -329.3973999023438 C -3383.19873046875 -330.7450561523438 -3381.936279296875 -331.8924865722656 -3379.966796875 -331.8924865722656 C -3378.842041015625 -331.8924865722656 -3377.829345703125 -331.49365234375 -3377.115966796875 -330.7694702148438 C -3376.727294921875 -330.3750305175781 -3376.440185546875 -329.9040832519531 -3376.268310546875 -329.3894958496094 C -3375.7607421875 -329.7357482910156 -3375.120361328125 -329.9220275878906 -3374.37646484375 -329.9229736328125 L -3374.37646484375 -329.9230041503906 L -3374.354736328125 -329.9230041503906 C -3372.629638671875 -329.9230041503906 -3371.42529296875 -328.8609924316406 -3371.21142578125 -327.1514587402344 C -3371.1572265625 -326.71826171875 -3371.16943359375 -326.2868347167969 -3371.18017578125 -325.9062194824219 C -3371.193359375 -325.4383850097656 -3371.208251953125 -324.9081115722656 -3371.065673828125 -324.7241821289062 L -3370.328125 -323.7725524902344 L -3370.843017578125 -323.3061828613281 C -3370.202392578125 -322.8130493164062 -3369.672119140625 -321.9328308105469 -3369.672119140625 -320.9258422851562 L -3369.672119140625 -319.6258544921875 L -3373.157470703125 -319.6258544921875 C -3373.12060546875 -319.3934326171875 -3373.102294921875 -319.154296875 -3373.102783203125 -318.9094848632812 L -3373.105712890625 -317.6123046875 Z" stroke="none" fill="#27272d"/>
    </g>
  </g>
</svg>
