<svg xmlns="http://www.w3.org/2000/svg" width="17.051" height="15.335" viewBox="0 0 17.051 15.335">
  <path id="Menu" d="M-2957.95-710.329h-14.955a1.025,1.025,0,0,1-1.048-1,1.025,1.025,0,0,1,1.048-1h14.955a1.025,1.025,0,0,1,1.048,1A1.025,1.025,0,0,1-2957.95-710.329Zm0-6.683h-10.956a1.025,1.025,0,0,1-1.048-1,1.025,1.025,0,0,1,1.048-1h10.956a1.025,1.025,0,0,1,1.048,1A1.025,1.025,0,0,1-2957.95-717.013Zm0-6.652h-14.955a1.025,1.025,0,0,1-1.048-1,1.025,1.025,0,0,1,1.048-1h14.955a1.025,1.025,0,0,1,1.048,1A1.025,1.025,0,0,1-2957.95-723.665Z" transform="translate(2973.953 725.665)" fill="#27272D"/>
</svg>
