<svg xmlns="http://www.w3.org/2000/svg" width="19.876" height="15.899" viewBox="0 0 19.876 15.899">
  <path id="Product" d="M6.026,2.037,2.1,3.982,2.81,5.4,3.5,5.061a2.189,2.189,0,0,1,2.49.393A2.175,2.175,0,0,1,6.659,7.03V14.2H13.2V7.027a2.191,2.191,0,0,1,3.156-1.97l.695.34.71-1.417L13.843,2.037A6.933,6.933,0,0,1,9.934,3.162,6.933,6.933,0,0,1,6.026,2.037M6.317,0A4.506,4.506,0,0,0,9.934,1.466,4.506,4.506,0,0,0,13.552,0L19.6,3a.5.5,0,0,1,.22.668L18.039,7.217a.5.5,0,0,1-.668.224l-1.758-.86a.5.5,0,0,0-.714.447v7.878a.993.993,0,0,1-.994.994H5.957a.993.993,0,0,1-.994-.994V7.03a.5.5,0,0,0-.714-.447l-1.758.86a.5.5,0,0,1-.668-.224L.047,3.664A.5.5,0,0,1,.271,3Z" transform="translate(0.004)" fill="#919191"/>
</svg>
