<svg xmlns="http://www.w3.org/2000/svg" width="41.745" height="37.268" viewBox="0 0 41.745 37.268">
  <g id="Store" transform="translate(0 -3.754)">
    <rect id="Rectangle_199" data-name="Rectangle 199" width="35.725" height="30.578" transform="translate(3.01 9.5)" fill="#e9eaeb"/>
    <rect id="Rectangle_200" data-name="Rectangle 200" width="4.536" height="30.578" transform="translate(34.2 9.5)" fill="#b9bbc1"/>
    <path id="Path_468" data-name="Path 468" d="M40.813,9.5H4.838V4.48a.726.726,0,0,1,.726-.726H40.086a.726.726,0,0,1,.726.726Z" transform="translate(-1.953 0)" fill="#fdc74f"/>
    <path id="Path_469" data-name="Path 469" d="M61.366,3.754h-3.81V7.532h4.536V4.48A.726.726,0,0,0,61.366,3.754Z" transform="translate(-23.232 0)" fill="#fca629"/>
    <path id="Path_470" data-name="Path 470" d="M3.032,25h0A2.977,2.977,0,0,1,.054,22.018V19.593H6.009v2.425A2.977,2.977,0,0,1,3.032,25Z" transform="translate(-0.022 -6.393)" fill="#e60d28"/>
    <path id="Path_471" data-name="Path 471" d="M13.016,25h0a2.977,2.977,0,0,1-2.977-2.977V19.593h5.954v2.425A2.977,2.977,0,0,1,13.016,25Z" transform="translate(-4.052 -6.393)" fill="#f2f2f2"/>
    <path id="Path_472" data-name="Path 472" d="M23,25h0a2.977,2.977,0,0,1-2.977-2.977V19.593h5.954v2.425A2.977,2.977,0,0,1,23,25Z" transform="translate(-8.082 -6.393)" fill="#e60d28"/>
    <path id="Path_473" data-name="Path 473" d="M32.985,25h0a2.977,2.977,0,0,1-2.977-2.977V19.593h5.954v2.425A2.977,2.977,0,0,1,32.985,25Z" transform="translate(-12.112 -6.393)" fill="#f2f2f2"/>
    <path id="Path_474" data-name="Path 474" d="M42.969,25h0a2.977,2.977,0,0,1-2.977-2.977V19.593h5.954v2.425A2.977,2.977,0,0,1,42.969,25Z" transform="translate(-16.143 -6.393)" fill="#e60d28"/>
    <path id="Path_475" data-name="Path 475" d="M52.954,25h0a2.977,2.977,0,0,1-2.977-2.977V19.593h5.954v2.425A2.977,2.977,0,0,1,52.954,25Z" transform="translate(-20.173 -6.393)" fill="#f2f2f2"/>
    <path id="Path_476" data-name="Path 476" d="M62.938,25h0a2.977,2.977,0,0,1-2.977-2.977V19.593h5.954v2.425A2.977,2.977,0,0,1,62.938,25Z" transform="translate(-24.203 -6.393)" fill="#e60d28"/>
    <path id="Path_477" data-name="Path 477" d="M6.009,15.757H.054L2.9,10.09h5.14Z" transform="translate(-0.022 -2.558)" fill="#fc502a"/>
    <path id="Path_478" data-name="Path 478" d="M15.993,15.757H10.039l2.035-5.667h5.14Z" transform="translate(-4.052 -2.558)" fill="#fff"/>
    <path id="Path_479" data-name="Path 479" d="M25.978,15.757H20.023l1.221-5.667h5.14Z" transform="translate(-8.082 -2.558)" fill="#fc502a"/>
    <path id="Path_480" data-name="Path 480" d="M35.962,15.757H30.008l.407-5.667h5.14Z" transform="translate(-12.112 -2.558)" fill="#fff"/>
    <path id="Path_481" data-name="Path 481" d="M45.671,15.757H39.717L39.31,10.09h5.14Z" transform="translate(-15.867 -2.558)" fill="#fc502a"/>
    <path id="Path_482" data-name="Path 482" d="M55.1,15.757H49.15L47.929,10.09h5.14Z" transform="translate(-19.346 -2.558)" fill="#fff"/>
    <path id="Path_483" data-name="Path 483" d="M64.538,15.757H58.583L56.548,10.09h5.14Z" transform="translate(-22.825 -2.558)" fill="#fc502a"/>
    <path id="Path_484" data-name="Path 484" d="M40.385,59.979H1.36A1.36,1.36,0,0,0,0,61.339v1.993a.385.385,0,0,0,.385.385H41.359a.385.385,0,0,0,.385-.385V61.339A1.36,1.36,0,0,0,40.385,59.979Z" transform="translate(0 -22.695)" fill="#8b8996"/>
    <path id="Path_485" data-name="Path 485" d="M65.561,59.979h-3.19v3.738h4.164a.385.385,0,0,0,.385-.385V61.339A1.36,1.36,0,0,0,65.561,59.979Z" transform="translate(-25.176 -22.695)" fill="#706f7f"/>
    <path id="Path_486" data-name="Path 486" d="M46.274,45.714H27.936a.542.542,0,0,1-.542-.542V35.082a.542.542,0,0,1,.542-.542H46.274a.542.542,0,0,1,.542.542V45.173A.542.542,0,0,1,46.274,45.714Z" transform="translate(-11.058 -12.427)" fill="#00c6c8"/>
    <path id="Path_487" data-name="Path 487" d="M56.34,34.54H52.332V45.714H56.34a.542.542,0,0,0,.542-.542V35.082A.542.542,0,0,0,56.34,34.54Z" transform="translate(-21.124 -12.427)" fill="#0fb0c0"/>
    <path id="Path_488" data-name="Path 488" d="M17.413,49.711H9.046V35.082a.542.542,0,0,1,.542-.542h7.283a.542.542,0,0,1,.542.542V49.711Z" transform="translate(-3.651 -12.427)" fill="#00c6c8"/>
    <path id="Path_489" data-name="Path 489" d="M19.454,34.54H15.446v15.17H20V35.082A.542.542,0,0,0,19.454,34.54Z" transform="translate(-6.235 -12.427)" fill="#0fb0c0"/>
    <path id="Path_490" data-name="Path 490" d="M18.729,47.289a.63.63,0,0,0,.63-.63V45.525a.63.63,0,0,0-1.26,0v1.134A.63.63,0,0,0,18.729,47.289Z" transform="translate(-7.305 -16.607)" fill="#fff"/>
  </g>
</svg>
