<svg xmlns="http://www.w3.org/2000/svg" width="40.716" height="40.716" viewBox="0 0 40.716 40.716">
  <g id="storage" transform="translate(-2 -2)">
    <path id="Path_506" data-name="Path 506" d="M42,20h8.143v6.786H42Z" transform="translate(-12.856 -5.785)" fill="#c18e5c"/>
    <path id="Path_507" data-name="Path 507" d="M42,20v5.429c3.721,0,6.8-2.353,7.363-5.429Z" transform="translate(-12.856 -5.785)" fill="#cda57d"/>
    <path id="Path_508" data-name="Path 508" d="M10,38H39.858V48.858H10Z" transform="translate(-2.571 -11.57)" fill="#c18e5c"/>
    <path id="Path_509" data-name="Path 509" d="M10,38v9.319a32.21,32.21,0,0,0,3.393.182c9.162,0,17.107-3.856,21.069-9.5Z" transform="translate(-2.571 -11.57)" fill="#cda57d"/>
    <g id="Group_393" data-name="Group 393" transform="translate(4.714 8.786)">
      <path id="Path_510" data-name="Path 510" d="M6,12H41.287v2.714H6Z" transform="translate(-6 -12)" fill="#666e77"/>
      <path id="Path_511" data-name="Path 511" d="M6,30H41.287v2.714H6Z" transform="translate(-6 -17.785)" fill="#666e77"/>
      <path id="Path_512" data-name="Path 512" d="M6,54H41.287v2.714H6Z" transform="translate(-6 -25.499)" fill="#666e77"/>
    </g>
    <path id="Path_513" data-name="Path 513" d="M2,2H4.714V42.716H2Z" fill="#88929f"/>
    <path id="Path_514" data-name="Path 514" d="M58,2h2.714V42.716H58Z" transform="translate(-17.998)" fill="#88929f"/>
    <path id="Path_515" data-name="Path 515" d="M46,20h2.714v2.714H46Z" transform="translate(-14.142 -5.785)" fill="#e1c9b1"/>
    <path id="Path_516" data-name="Path 516" d="M26,20h8.143v6.786H26Z" transform="translate(-7.714 -5.785)" fill="#c18e5c"/>
    <path id="Path_517" data-name="Path 517" d="M26,20v5.429c3.721,0,6.8-2.353,7.363-5.429Z" transform="translate(-7.714 -5.785)" fill="#cda57d"/>
    <path id="Path_518" data-name="Path 518" d="M30,20h2.714v2.714H30Z" transform="translate(-8.999 -5.785)" fill="#e1c9b1"/>
    <path id="Path_519" data-name="Path 519" d="M10,20h8.143v6.786H10Z" transform="translate(-2.571 -5.785)" fill="#c18e5c"/>
    <path id="Path_520" data-name="Path 520" d="M10,20v5.429c3.721,0,6.8-2.353,7.363-5.429Z" transform="translate(-2.571 -5.785)" fill="#cda57d"/>
    <path id="Path_521" data-name="Path 521" d="M14,20h2.714v2.714H14Z" transform="translate(-3.857 -5.785)" fill="#e1c9b1"/>
    <path id="Path_522" data-name="Path 522" d="M42,2h8.143V8.786H42Z" transform="translate(-12.856)" fill="#c18e5c"/>
    <path id="Path_523" data-name="Path 523" d="M42,2V7.429c3.721,0,6.8-2.353,7.363-5.429Z" transform="translate(-12.856)" fill="#cda57d"/>
    <path id="Path_524" data-name="Path 524" d="M46,2h2.714V4.714H46Z" transform="translate(-14.142)" fill="#e1c9b1"/>
    <path id="Path_525" data-name="Path 525" d="M26,2h8.143V8.786H26Z" transform="translate(-7.714)" fill="#c18e5c"/>
    <path id="Path_526" data-name="Path 526" d="M26,2V7.429c3.721,0,6.8-2.353,7.363-5.429Z" transform="translate(-7.714)" fill="#cda57d"/>
    <path id="Path_527" data-name="Path 527" d="M30,2h2.714V4.714H30Z" transform="translate(-8.999)" fill="#e1c9b1"/>
    <path id="Path_528" data-name="Path 528" d="M10,2h8.143V8.786H10Z" transform="translate(-2.571)" fill="#c18e5c"/>
    <path id="Path_529" data-name="Path 529" d="M10,2V7.429c3.721,0,6.8-2.353,7.363-5.429Z" transform="translate(-2.571)" fill="#cda57d"/>
    <path id="Path_530" data-name="Path 530" d="M14,2h2.714V4.714H14Z" transform="translate(-3.857)" fill="#e1c9b1"/>
    <path id="Path_531" data-name="Path 531" d="M29,38h4.072v5.429H29Z" transform="translate(-8.678 -11.57)" fill="#e1c9b1"/>
    <g id="Group_394" data-name="Group 394" transform="translate(32.537 33.894)">
      <path id="Path_532" data-name="Path 532" d="M47,49h2.714v1.357H47Z" transform="translate(-47 -49)" fill="#e1c9b1"/>
    </g>
    <g id="Group_395" data-name="Group 395" transform="translate(32.537 31.18)">
      <path id="Path_533" data-name="Path 533" d="M47,45h2.714v1.357H47Z" transform="translate(-47 -45)" fill="#e1c9b1"/>
    </g>
  </g>
</svg>
