<svg xmlns="http://www.w3.org/2000/svg" width="26.114" height="15.4" viewBox="0 0 26.114 15.4">
  <path id="Truck" d="M-2724.691-706.275h-6.219a2.89,2.89,0,0,1-2.783,2.143,2.889,2.889,0,0,1-2.784-2.143h-1.5a.737.737,0,0,1-.735-.736.737.737,0,0,1,.735-.735h1.5a2.889,2.889,0,0,1,2.784-2.143,2.89,2.89,0,0,1,2.783,2.143h2.522l2.344-10.314h-11.935a.737.737,0,0,1-.735-.736.737.737,0,0,1,.735-.735h12.857a.733.733,0,0,1,.576.276.737.737,0,0,1,.143.621l-.527,2.317h3.022a5.027,5.027,0,0,1,5.022,5.021v.019l0,.018-.813,4.385a.736.736,0,0,1-.723.6h-.7a2.889,2.889,0,0,1-2.784,2.143A2.89,2.89,0,0,1-2724.691-706.275Zm1.377-.736a1.408,1.408,0,0,0,1.406,1.408,1.408,1.408,0,0,0,1.408-1.408,1.408,1.408,0,0,0-1.408-1.407A1.408,1.408,0,0,0-2723.314-707.011Zm-11.786,0a1.408,1.408,0,0,0,1.408,1.408,1.414,1.414,0,0,0,1.406-1.378c0-.01,0-.02,0-.03s0-.02,0-.029a1.414,1.414,0,0,0-1.406-1.378A1.408,1.408,0,0,0-2735.1-707.011Zm15.976-.735h.088l.688-3.666a3.411,3.411,0,0,0-1.048-2.4,3.571,3.571,0,0,0-2.513-1.031h-3.356l-1.615,7.1h2.188a2.89,2.89,0,0,1,2.783-2.143A2.889,2.889,0,0,1-2719.124-707.747Zm-23.141-1.742a.737.737,0,0,1-.735-.736.737.737,0,0,1,.735-.736h6.429a.737.737,0,0,1,.736.736.737.737,0,0,1-.736.736Zm1.071-3.215a.737.737,0,0,1-.735-.736.737.737,0,0,1,.735-.735h5.358a.737.737,0,0,1,.736.735.737.737,0,0,1-.736.736Zm1.073-3.214a.737.737,0,0,1-.736-.736.737.737,0,0,1,.736-.735h4.285a.737.737,0,0,1,.736.735.737.737,0,0,1-.736.736Z" transform="translate(2743 719.532)" fill="#27272d"/>
</svg>
