<svg id="Group_314" data-name="Group 314" xmlns="http://www.w3.org/2000/svg" width="375" height="812" viewBox="0 0 375 812">
  <g id="Rectangle_149" data-name="Rectangle 149" fill="#fcda45" stroke="#707070" stroke-width="1">
    <rect width="375" height="812" stroke="none"/>
    <rect x="0.5" y="0.5" width="374" height="811" fill="none"/>
  </g>
  <g id="Group_312" data-name="Group 312">
    <g id="Group_312-2" data-name="Group 312">
      <g id="logo" transform="translate(133 330)">
        <g id="Red" transform="translate(26.597 25.937)">
          <path id="Red-2" data-name="Red" d="M24.12.041a24.387,24.387,0,0,1,24.2,24.4A24.1,24.1,0,0,1,24.239,48.731a24.387,24.387,0,0,1-24.2-24.4A24.1,24.1,0,0,1,24.12.041Z" transform="matrix(0.966, 0.259, -0.259, 0.966, 12.523, 0)" fill="#d45526"/>
        </g>
        <g id="Black">
          <path id="Path_37" data-name="Path 37" d="M16.081,4.7a7.123,7.123,0,0,1,13.4,0L45.107,47.148a7.209,7.209,0,0,1-6.7,9.734,65.664,65.664,0,0,0-16.226-2.531A51.4,51.4,0,0,0,7.154,56.882a7.209,7.209,0,0,1-6.7-9.734Z" transform="translate(80.854 152.522) rotate(180)" fill="#272d2d"/>
          <path id="Path_36" data-name="Path 36" d="M22.622,93.6h0A55.016,55.016,0,0,1,8.8,69.107,55.772,55.772,0,0,1,7,55.038c0-.718.014-1.456.042-2.192l12.486.872c-.012.4-.019.848-.019,1.32A42.445,42.445,0,0,0,30.64,83.761L22.623,93.6Zm81.467-4.217v0L95.9,79.332A42.587,42.587,0,0,0,85.864,20.518a41.679,41.679,0,0,0-11.777-5.941l.006-.021-.6-.161c-.751-.227-1.52-.435-2.287-.619L38.773,5c.574-.266,1.055-.479,1.513-.674a54.189,54.189,0,0,1,42.427,0,54.308,54.308,0,0,1,17.323,11.8,55.409,55.409,0,0,1,4.053,73.261Zm-78.685-56h0l-12.46-3.372a54.988,54.988,0,0,1,7.411-11.071l13.98,3.782A42.506,42.506,0,0,0,25.4,33.387Z" transform="translate(-7 0)" fill="#272d2d"/>
          <path id="Path_38" data-name="Path 38" d="M-.518-408.664A24.387,24.387,0,0,1-17.576-438.5,24.319,24.319,0,0,1-11.7-449.052l-32.8-8.876A55.172,55.172,0,0,1-37.085-469l48.791,13.2.262.069a24.387,24.387,0,0,1,17.058,29.836A24.175,24.175,0,0,1,5.74-407.828,23.919,23.919,0,0,1-.518-408.664Zm-4.976-26.567a11.754,11.754,0,0,0,8.213,14.365,11.616,11.616,0,0,0,14.224-8.294A11.755,11.755,0,0,0,8.73-443.525a11.5,11.5,0,0,0-3-.4A11.651,11.651,0,0,0-5.494-435.231Z" transform="translate(50.44 487.945)" fill="#272d2d"/>
        </g>
      </g>
    </g>
  </g>
</svg>
