<svg xmlns="http://www.w3.org/2000/svg" width="110" height="153" viewBox="0 0 109 152.522">
  <path data-name="Red" d="M62.385 32.214a24.387 24.387 0 0 1 17.07 29.826 24.1 24.1 0 0 1-29.54 17.24 24.387 24.387 0 0 1-17.071-29.826 24.1 24.1 0 0 1 29.54-17.24Z" fill="#d45526"/>
  <g fill="#272d2d">
    <path data-name="Path 37" d="M64.773 147.822a7.123 7.123 0 0 1-13.4 0l-15.626-42.448a7.209 7.209 0 0 1 6.7-9.734 65.664 65.664 0 0 0 16.226 2.531A51.4 51.4 0 0 0 73.7 95.64a7.209 7.209 0 0 1 6.7 9.734Z"/>
    <path data-name="Path 36" d="M15.622 93.6A55.016 55.016 0 0 1 1.8 69.107 55.772 55.772 0 0 1 0 55.038c0-.718.014-1.456.042-2.192l12.486.872c-.012.4-.019.848-.019 1.32A42.445 42.445 0 0 0 23.64 83.761L15.623 93.6Zm81.467-4.217L88.9 79.332a42.587 42.587 0 0 0-10.036-58.814 41.679 41.679 0 0 0-11.777-5.941l.006-.021-.6-.161a40.965 40.965 0 0 0-2.287-.619L31.773 5a51.614 51.614 0 0 1 1.513-.674 54.189 54.189 0 0 1 42.427 0 54.308 54.308 0 0 1 17.323 11.8 55.409 55.409 0 0 1 4.053 73.261Zm-78.685-56-12.46-3.372a54.988 54.988 0 0 1 7.411-11.071l13.98 3.782A42.506 42.506 0 0 0 18.4 33.387Z"/>
    <path data-name="Path 38" d="M49.922 79.281a24.387 24.387 0 0 1-17.058-29.836 24.319 24.319 0 0 1 5.876-10.552l-32.8-8.876a55.172 55.172 0 0 1 7.415-11.072l48.791 13.2.262.069A24.387 24.387 0 0 1 79.466 62.05 24.175 24.175 0 0 1 56.18 80.117a23.919 23.919 0 0 1-6.258-.836Zm-4.976-26.567a11.754 11.754 0 0 0 8.213 14.365 11.616 11.616 0 0 0 14.224-8.294A11.755 11.755 0 0 0 59.17 44.42a11.5 11.5 0 0 0-3-.4 11.651 11.651 0 0 0-11.224 8.694Z"/>
  </g>
</svg>